<?xml version="1.0" encoding="UTF-8" standalone="no"?>
<svg
   xmlns:dc="http://purl.org/dc/elements/1.1/"
   xmlns:cc="http://creativecommons.org/ns#"
   xmlns:rdf="http://www.w3.org/1999/02/22-rdf-syntax-ns#"
   xmlns:svg="http://www.w3.org/2000/svg"
   xmlns="http://www.w3.org/2000/svg"
   xmlns:sodipodi="http://sodipodi.sourceforge.net/DTD/sodipodi-0.dtd"
   xmlns:inkscape="http://www.inkscape.org/namespaces/inkscape"
   viewBox="0 0 512 512"
   version="1.1"
   id="svg1045"
   sodipodi:docname="swap_white.svg"
   inkscape:version="0.92.3 (2405546, 2018-03-11)">
  <metadata
     id="metadata1051">
    <rdf:RDF>
      <cc:Work
         rdf:about="">
        <dc:format>image/svg+xml</dc:format>
        <dc:type
           rdf:resource="http://purl.org/dc/dcmitype/StillImage" />
        <dc:title></dc:title>
      </cc:Work>
    </rdf:RDF>
  </metadata>
  <defs
     id="defs1049" />
  <sodipodi:namedview
     pagecolor="#ffffff"
     bordercolor="#666666"
     borderopacity="1"
     objecttolerance="10"
     gridtolerance="10"
     guidetolerance="10"
     inkscape:pageopacity="0"
     inkscape:pageshadow="2"
     inkscape:window-width="1920"
     inkscape:window-height="1025"
     id="namedview1047"
     showgrid="false"
     inkscape:zoom="1.578125"
     inkscape:cx="256"
     inkscape:cy="256"
     inkscape:window-x="0"
     inkscape:window-y="0"
     inkscape:window-maximized="1"
     inkscape:current-layer="svg1045" />
  <path
     d="M131.3 231.1L32 330.6l99.3 99.4v-74.6h174.5v-49.7H131.3v-74.6zM480 181.4L380.7 82v74.6H206.2v49.7h174.5v74.6l99.3-99.5z"
     id="path1043" />
  <path
     style="opacity:1;fill:#ffffff;fill-opacity:1;stroke-width:0.63366336"
     d="M 380.95842,243.23118 V 206.32079 H 293.8297 206.70099 v -24.71287 -24.71287 h 87.12365 87.12364 l 0.16349,-37.12031 0.16348,-37.120313 49.05889,49.526263 49.05888,49.52626 -49.2173,49.21731 -49.2173,49.21729 z"
     id="path1053"
     inkscape:connector-curvature="0" />
  <path
     style="opacity:1;fill:#ffffff;fill-opacity:1;stroke-width:0.63366336"
     d="m 81.751448,380.10462 -49.22677,-49.26898 49.359959,-49.74257 49.359963,-49.74257 0.0252,37.22772 0.0252,37.22772 h 87.12871 87.12872 v 24.71287 24.71287 h -87.12365 -87.12365 l -0.16348,37.07096 -0.16348,37.07095 z"
     id="path1055"
     inkscape:connector-curvature="0" />
</svg>
