<?xml version="1.0" encoding="UTF-8" standalone="no"?>
<svg
   xmlns:dc="http://purl.org/dc/elements/1.1/"
   xmlns:cc="http://creativecommons.org/ns#"
   xmlns:rdf="http://www.w3.org/1999/02/22-rdf-syntax-ns#"
   xmlns:svg="http://www.w3.org/2000/svg"
   xmlns="http://www.w3.org/2000/svg"
   xmlns:sodipodi="http://sodipodi.sourceforge.net/DTD/sodipodi-0.dtd"
   xmlns:inkscape="http://www.inkscape.org/namespaces/inkscape"
   viewBox="0 0 512 512"
   version="1.1"
   id="svg1134"
   sodipodi:docname="sync_white.svg"
   inkscape:version="0.92.3 (2405546, 2018-03-11)">
  <metadata
     id="metadata1140">
    <rdf:RDF>
      <cc:Work
         rdf:about="">
        <dc:format>image/svg+xml</dc:format>
        <dc:type
           rdf:resource="http://purl.org/dc/dcmitype/StillImage" />
        <dc:title></dc:title>
      </cc:Work>
    </rdf:RDF>
  </metadata>
  <defs
     id="defs1138" />
  <sodipodi:namedview
     pagecolor="#ffffff"
     bordercolor="#666666"
     borderopacity="1"
     objecttolerance="10"
     gridtolerance="10"
     guidetolerance="10"
     inkscape:pageopacity="0"
     inkscape:pageshadow="2"
     inkscape:window-width="1920"
     inkscape:window-height="1025"
     id="namedview1136"
     showgrid="false"
     inkscape:zoom="1.578125"
     inkscape:cx="256"
     inkscape:cy="256"
     inkscape:window-x="0"
     inkscape:window-y="0"
     inkscape:window-maximized="1"
     inkscape:current-layer="svg1134" />
  <path
     d="M256 93.09V32l-80 81.454 80 81.456v-61.093c65.996 0 120 54.982 120 122.183 0 20.363-5 39.714-14.004 57.016L391 342.547c15.996-25.457 25-54.988 25-86.547 0-89.599-72.002-162.91-160-162.91zm0 285.094c-66.001 0-120-54.988-120-122.184 0-20.363 5-39.709 13.999-57.02L121 169.454C104.999 193.89 96 224.436 96 256c0 89.599 72.002 162.91 160 162.91V480l80-81.453-80-81.457v61.094z"
     id="path1132" />
  <path
     style="opacity:1;fill:#ffffff;fill-opacity:1;stroke-width:0.63366336"
     d="m 376.6496,327.46749 -14.06102,-14.54227 2.76868,-6.25271 c 15.54946,-35.11648 14.26383,-75.26685 -3.4745,-108.50904 -19.36372,-36.28824 -54.42974,-59.95697 -94.89247,-64.05014 -3.60921,-0.3651 -7.67257,-0.66383 -9.0297,-0.66383 h -2.46752 l -0.0321,30.25743 -0.0321,30.25743 -10.26496,-10.54621 c -5.64574,-5.80041 -23.41578,-23.90734 -39.48899,-40.23762 l -29.22402,-29.69142 39.36263,-40.116048 39.36264,-40.116048 0.1645,30.038744 0.1645,30.038744 8.70678,0.404352 c 36.90787,1.714041 72.79627,17.264156 100.46343,43.529886 23.50598,22.31532 40.48739,52.45774 47.29123,83.94314 6.80741,31.50187 3.94034,65.8872 -7.91279,94.89969 -2.97223,7.27503 -10.24033,21.78746 -12.23498,24.42995 l -1.10829,1.46826 z"
     id="path1142"
     inkscape:connector-curvature="0" />
  <path
     style="opacity:1;fill:#ffffff;fill-opacity:1;stroke-width:0.63366336"
     d="m 256.15889,448.95202 -0.0322,-30.16085 -8.03104,-0.42934 C 178.2911,414.6301 118.18876,364.40438 101.27397,295.66733 98.057729,282.5974 97.033067,274.90507 96.631557,260.81584 c -0.733806,-25.74967 3.496813,-47.87445 13.505533,-70.62971 3.12286,-7.09994 10.37858,-20.10367 11.07007,-19.83983 0.24867,0.0949 6.69483,6.58835 14.32481,14.42994 l 13.87268,14.25742 -3.04292,6.9703 c -28.36081,64.96513 2.39679,139.46933 68.04492,164.82532 10.23364,3.95264 23.00952,6.61156 36.16942,7.52756 l 5.53845,0.38551 0.16452,-30.35741 0.16452,-30.3574 39.49721,40.17004 39.4972,40.17003 -10.80629,11.22412 c -5.94346,6.17326 -23.77402,24.34094 -39.62346,40.37263 l -28.81716,29.14851 -0.0322,-30.16085 z"
     id="path1144"
     inkscape:connector-curvature="0" />
</svg>
